<svg width="337" height="339" viewBox="0 0 337 339" fill="none" xmlns="http://www.w3.org/2000/svg">
<mask id="path-1-inside-1" fill="white">
<path fill-rule="evenodd" clip-rule="evenodd" d="M245.233 256.021C276.607 256.021 305.692 246.221 329.595 229.515C305.079 293.54 243.05 339 170.403 339C76.2922 339 0 262.708 0 168.596C0 115.174 24.5837 67.4931 63.0555 36.2498L80.0156 43.7122V24.1143C99.5396 11.8743 121.721 3.48197 145.498 0C116.175 26.9477 97.7968 65.6201 97.7968 108.585C97.7968 190.012 163.806 256.021 245.233 256.021Z"/>
</mask>
<path fill-rule="evenodd" clip-rule="evenodd" d="M245.233 256.021C276.607 256.021 305.692 246.221 329.595 229.515C305.079 293.54 243.05 339 170.403 339C76.2922 339 0 262.708 0 168.596C0 115.174 24.5837 67.4931 63.0555 36.2498L80.0156 43.7122V24.1143C99.5396 11.8743 121.721 3.48197 145.498 0C116.175 26.9477 97.7968 65.6201 97.7968 108.585C97.7968 190.012 163.806 256.021 245.233 256.021Z" fill="#F5F5F5"/>
<path d="M329.595 229.515L330.529 229.873C330.686 229.463 330.557 228.998 330.211 228.727C329.864 228.457 329.382 228.444 329.022 228.696L329.595 229.515ZM63.0555 36.2498L63.4583 35.3345C63.1151 35.1835 62.7162 35.2371 62.4251 35.4735L63.0555 36.2498ZM80.0156 43.7122L79.6128 44.6275C79.9221 44.7636 80.2791 44.7343 80.562 44.5497C80.845 44.3651 81.0156 44.0501 81.0156 43.7122H80.0156ZM80.0156 24.1143L79.4844 23.2671C79.1927 23.45 79.0156 23.77 79.0156 24.1143H80.0156ZM145.498 0L146.175 0.736306C146.498 0.439354 146.59 -0.0335815 146.401 -0.429831C146.213 -0.82608 145.788 -1.05304 145.353 -0.989447L145.498 0ZM329.022 228.696C305.282 245.288 276.396 255.021 245.233 255.021V257.021C276.819 257.021 306.103 247.154 330.168 230.335L329.022 228.696ZM170.403 340C243.478 340 305.87 294.272 330.529 229.873L328.661 229.158C304.289 292.808 242.622 338 170.403 338V340ZM-1 168.596C-1 263.26 75.74 340 170.403 340V338C76.8445 338 1 262.155 1 168.596H-1ZM62.4251 35.4735C23.7296 66.8985 -1 114.86 -1 168.596H1C1 115.488 25.4379 68.0876 63.686 37.0261L62.4251 35.4735ZM62.6528 37.1651L79.6128 44.6275L80.4183 42.7969L63.4583 35.3345L62.6528 37.1651ZM81.0156 43.7122V24.1143H79.0156V43.7122H81.0156ZM145.353 -0.989447C121.436 2.51309 99.1232 10.9551 79.4844 23.2671L80.5467 24.9616C99.9561 12.7935 122.007 4.45085 145.643 0.989447L145.353 -0.989447ZM98.7968 108.585C98.7968 65.9115 117.049 27.5026 146.175 0.736306L144.822 -0.736306C115.301 26.3928 96.7968 65.3287 96.7968 108.585H98.7968ZM245.233 255.021C164.358 255.021 98.7968 189.459 98.7968 108.585H96.7968C96.7968 190.564 163.254 257.021 245.233 257.021V255.021Z" fill="#F5F5F5" mask="url(#path-1-inside-1)"/>
<path d="M121.061 213.843C123.002 217.622 135.228 234.645 144.757 236.045C140.338 240.638 121.756 249.889 121.061 213.843Z" fill="#1C2C54" stroke="#F5F5F5"/>
<path d="M223.006 240.047C264.496 251.901 313.394 228.193 332.657 214.857C341.548 157.364 331.669 93.5984 322.285 67.4205C329.99 148.621 257.087 215.35 223.006 240.047Z" fill="#F5F5F5" stroke="#F5F5F5" stroke-linecap="round" stroke-linejoin="round"/>
</svg>
